HIERARCHY
ROOT Hips
{
	OFFSET 0.000000 0.000000 0.000000
	CHANNELS 6 Xposition Yposition Zposition Zrotation Yrotation Xrotation 
	JOINT LeftUpLeg_virtual
	{
		OFFSET 0.000000 0.000000 0.000000
		CHANNELS 3 Zrotation Yrotation Xrotation
		JOINT LeftUpLeg
		{
			OFFSET 8.479694 -4.795517 -0.379053
			CHANNELS 3 Zrotation Yrotation Xrotation
			JOINT LeftLeg
			{
				OFFSET 0.485052 -32.551468 0.112863
				CHANNELS 3 Zrotation Yrotation Xrotation
				JOINT LeftFoot
				{
					OFFSET 0.438033 -32.635670 -3.012641
					CHANNELS 3 Zrotation Yrotation Xrotation
					JOINT LeftToeBase
					{
						OFFSET 0.970169 -13.225353 11.864223
						CHANNELS 3 Zrotation Yrotation Xrotation
						End Site
						{
							OFFSET 0.000000 0.000000 0.000000
						}
					}
				}
			}
		}
	}
	JOINT RightUpLeg_virtual
	{
		OFFSET 0.000000 0.000000 0.000000
		CHANNELS 3 Zrotation Yrotation Xrotation
		JOINT RightUpLeg
		{
			OFFSET -8.479694 -4.795517 -0.379053
			CHANNELS 3 Zrotation Yrotation Xrotation
			JOINT RightLeg
			{
				OFFSET -0.484100 -32.551483 0.112903
				CHANNELS 3 Zrotation Yrotation Xrotation
				JOINT RightFoot
				{
					OFFSET -0.438985 -32.635651 -3.012681
					CHANNELS 3 Zrotation Yrotation Xrotation
					JOINT RightToeBase
					{
						OFFSET -0.970169 -13.225354 11.864223
						CHANNELS 3 Zrotation Yrotation Xrotation
						End Site
						{
							OFFSET 0.000000 0.000000 0.000000
						}
					}
				}
			}
		}
	}
	JOINT Spine_virtual
	{
		OFFSET 0.000000 0.000000 0.000000
		CHANNELS 3 Zrotation Yrotation Xrotation
		JOINT Spine
		{
			OFFSET 0.000000 7.722015 1.166203
			CHANNELS 3 Zrotation Yrotation Xrotation
			JOINT Spine1
			{
				OFFSET 0.000000 12.024086 0.248766
				CHANNELS 3 Zrotation Yrotation Xrotation
				JOINT Spine2
				{
					OFFSET -0.000000 11.503036 -0.491240
					CHANNELS 3 Zrotation Yrotation Xrotation
					JOINT Neck_virtual
					{
						OFFSET 0.000000 0.000000 0.000000
						CHANNELS 3 Zrotation Yrotation Xrotation
						JOINT Neck
						{
							OFFSET 0.000000 18.430687 -3.123054
							CHANNELS 3 Zrotation Yrotation Xrotation
							JOINT Head
							{
								OFFSET -0.000000 9.051071 1.034021
								CHANNELS 3 Zrotation Yrotation Xrotation
								End Site
								{
									OFFSET 0.000000 0.000000 0.000000
								}
							}
						}
					}
					JOINT LeftShoulder_virtual
					{
						OFFSET 0.000000 0.000000 0.000000
						CHANNELS 3 Zrotation Yrotation Xrotation
						JOINT LeftShoulder
						{
							OFFSET 6.197824 13.665230 -4.064723
							CHANNELS 3 Zrotation Yrotation Xrotation
							JOINT LeftArm
							{
								OFFSET 7.778132 -0.187073 -1.709282
								CHANNELS 3 Zrotation Yrotation Xrotation
								JOINT LeftForeArm
								{
									OFFSET 21.954697 0.000000 -2.041093
									CHANNELS 3 Zrotation Yrotation Xrotation
									JOINT LeftHand
									{
										OFFSET 22.992908 0.000000 -0.870901
										CHANNELS 3 Zrotation Yrotation Xrotation
										End Site
										{
											OFFSET 0.000000 0.000000 0.000000
										}
									}
								}
							}
						}
					}
					JOINT RightShoulder_virtual
					{
						OFFSET 0.000000 0.000000 0.000000
						CHANNELS 3 Zrotation Yrotation Xrotation
						JOINT RightShoulder
						{
							OFFSET -6.197824 13.665230 -4.064723
							CHANNELS 3 Zrotation Yrotation Xrotation
							JOINT RightArm
							{
								OFFSET -7.778132 -0.187073 -1.709282
								CHANNELS 3 Zrotation Yrotation Xrotation
								JOINT RightForeArm
								{
									OFFSET -21.954697 0.000000 -2.041093
									CHANNELS 3 Zrotation Yrotation Xrotation
									JOINT RightHand
									{
										OFFSET -22.992908 0.000000 -0.870901
										CHANNELS 3 Zrotation Yrotation Xrotation
										End Site
										{
											OFFSET 0.000000 0.000000 0.000000
										}
									}
								}
							}
						}
					}
				}
			}
		}
	}
}
MOTION
Frames: 5
Frame Time: 0.033333
7.851487 80.521332 27.628994 -179.955718 4.177200 -179.907032 -5.004631 -0.627973 11.326585 -3.699928 1.519263 -24.286488 9.972368 4.317789 31.345712 2.521052 -8.770006 -15.340292 0.000000 0.000000 0.000000 -1.444631 -0.566469 10.776201 -0.733504 0.147993 -19.867996 -1.008734 3.086869 31.051877 7.781080 4.137435 -15.679135 0.000000 0.000000 0.000000 1.479590 1.899376 -0.711575 -4.289027 0.458578 -0.332688 0.356906 -3.026691 3.576913 0.030001 0.016259 0.027256 0.246992 -2.252003 4.203064 -0.674810 2.576884 -8.718188 0.000000 0.000000 0.000000 1.623013 -1.384765 1.596617 -2.407263 6.488486 -5.708674 -3.531131 -9.942476 -51.638528 0.214529 -33.025758 -3.880424 0.000000 0.000000 0.000000 -2.047116 -0.270992 0.952183 19.380452 -6.730690 -8.046585 1.823910 6.061115 -62.415006 -0.536048 16.984102 3.363539 0.000000 0.000000 0.000000 
7.877351 80.526764 27.684874 -179.916731 4.222172 -179.890107 -4.956406 -0.628790 11.424919 -3.590773 1.305585 -24.192329 10.052568 4.118715 31.415988 2.524596 -8.816132 -15.784289 0.000000 0.000000 0.000000 -1.440868 -0.508244 10.796941 -0.554165 -0.142908 -19.874860 -1.011237 2.799039 31.293051 7.707080 4.011174 -15.631718 0.000000 0.000000 0.000000 1.459566 1.983653 -0.663841 -4.301595 0.499507 -0.329597 0.354892 -2.954778 3.578742 0.006823 0.078042 0.049275 0.262543 -2.239047 4.200565 -0.648504 2.516208 -8.662118 0.000000 0.000000 0.000000 1.648845 -1.475929 1.625886 -2.358775 6.376484 -5.719142 -3.413427 -10.004951 -51.853072 0.109718 -33.092246 -3.808536 0.000000 0.000000 0.000000 -2.033931 -0.327707 0.885640 19.444046 -6.793718 -8.009518 1.795551 5.998757 -62.435087 -0.511653 17.213337 3.377923 0.000000 0.000000 0.000000 
7.901172 80.543442 27.794210 -179.975307 4.243308 -179.874289 -4.989896 -0.639274 11.413933 -3.554800 1.292746 -24.266351 10.031785 4.232845 31.384528 2.495768 -8.817444 -15.741305 0.000000 0.000000 0.000000 -1.450866 -0.497124 10.789264 -0.532040 -0.225782 -19.994737 -1.043679 2.853079 31.277455 7.750754 4.067691 -15.592174 0.000000 0.000000 0.000000 1.394510 1.963252 -0.612920 -4.369615 0.431977 -0.335595 0.333005 -2.997667 3.555036 -0.020364 0.013346 0.042886 0.302101 -2.128182 4.183277 -0.579795 2.442209 -8.624028 0.000000 0.000000 0.000000 1.721710 -1.392946 1.573230 -2.269481 6.405362 -5.765196 -3.383238 -10.127137 -51.754017 0.150683 -33.136424 -3.877101 0.000000 0.000000 0.000000 -1.963455 -0.251745 0.933322 19.626065 -6.689878 -8.119517 1.605574 6.008818 -62.608874 -0.340457 17.332273 3.516365 0.000000 0.000000 0.000000 
7.907709 80.568115 27.956335 -179.990115 4.401286 -179.853456 -5.033116 -0.577772 11.381047 -3.477902 1.343356 -24.348569 10.001041 4.306256 31.335200 2.445699 -8.838955 -15.647687 0.000000 0.000000 0.000000 -1.475746 -0.442062 10.742978 -0.501645 -0.263063 -20.116085 -1.069559 2.901227 31.214624 7.769679 4.105012 -15.454302 0.000000 0.000000 0.000000 1.352517 1.981164 -0.548595 -4.392912 0.453005 -0.324236 0.358770 -2.956452 3.535310 0.020863 0.031093 0.012941 0.264287 -2.159067 4.236924 -0.411307 2.301363 -8.477050 0.000000 0.000000 0.000000 1.650883 -1.356141 1.638366 -2.230037 6.445101 -5.742517 -3.321862 -10.432683 -51.734086 0.251053 -33.088636 -3.973571 0.000000 0.000000 0.000000 -1.988667 -0.257430 0.981442 19.749559 -6.742490 -8.023227 1.585053 5.990265 -62.627910 -0.273748 17.405608 3.501700 0.000000 0.000000 0.000000 
7.881651 80.604858 28.152626 179.977780 4.415036 -179.905380 -5.108745 -0.591947 11.336729 -3.400632 1.377826 -24.343105 9.981352 4.388839 31.321922 2.393709 -8.832042 -15.492346 0.000000 0.000000 0.000000 -1.497072 -0.554533 10.681719 -0.491101 -0.351711 -20.188827 -1.099177 3.012856 31.204255 7.794750 4.166769 -15.281145 0.000000 0.000000 0.000000 1.306874 1.926286 -0.449526 -4.442721 0.437858 -0.216440 0.361785 -2.956328 3.581901 0.000548 0.005086 0.032192 0.297434 -2.108918 4.218149 -0.184575 2.154211 -8.310052 0.000000 0.000000 0.000000 1.686892 -1.345260 1.555347 -2.133889 6.433847 -5.679150 -3.495520 -10.614041 -51.695878 0.289321 -33.106361 -3.968917 0.000000 0.000000 0.000000 -1.924684 -0.235345 0.996410 19.929891 -6.769763 -7.925109 1.480416 6.111813 -62.546720 -0.236807 17.367091 3.442901 0.000000 0.000000 0.000000 
